<?xml version="1.0" ?><svg xmlns="http://www.w3.org/2000/svg" xmlns:xlink="http://www.w3.org/1999/xlink" version="1.1" id="Layer_1" viewBox="0 0 64 64" enable-background="new 0 0 64 64" xml:space="preserve"><path d="M45.5233154,5.2339478c-0.0403442-0.0215454-0.0774536-0.0458984-0.119873-0.0614624C41.366394,3.1472168,36.8157959,2,32,2  C15.4580078,2,2,15.4580078,2,32c0,4.4888916,0.9671021,8.7974243,2.8694458,12.8082886  c0.0166626,0.0461426,0.0388794,0.0878296,0.062561,0.1315308c0.7385254,1.5455322,1.59375,3.0098877,2.5459595,4.3510132  c0.0002441,0.0003662,0.0003052,0.0007935,0.0005493,0.0011597c0.0004883,0.0006714,0.0009155,0.0012207,0.0014038,0.0018921  l0.000061,0.000061l0,0C13.100708,57.2498169,22.2669067,62,32,62c16.5419922,0,30-13.4580078,30-30  C62,20.3217163,55.288147,10.1878662,45.5233154,5.2339478z M32,4c4.0289917,0,7.8583374,0.8619995,11.3232422,2.4006348  l-6.1680298,6.0241699H21.4921875c-0.5522461,0-1,0.4477539-1,1v15.289978L6.1352539,42.7426758  C4.7177734,39.3491211,4,35.7421875,4,32C4,16.5605469,16.5605469,4,32,4z M35.109375,14.4248047L22.4921875,26.7597656V14.4248047  H35.109375z M22.190918,29.8510742c0.0001221-0.000061,0.0001221-0.0002441,0.0001831-0.0003052  s0.0002441-0.0001221,0.0003052-0.0001831l16.0697632-15.7104492h0.000061l6.9711914-6.8086548  c0.8449707,0.4550781,1.6646729,0.9511108,2.4550171,1.4876709l-10.8236694,10.576355L20.7949219,35.0957031  c-0.0004883,0.0004883-0.0009766,0.0009766-0.0019531,0.0019531L8.4521484,47.1630859  c-0.5117188-0.7949219-0.9892578-1.628418-1.4267578-2.4936523L22.190918,29.8510742z M32.9682617,30.1298828  c0.1860352,0.2744141,0.4960938,0.4389648,0.8276367,0.4389648h6.4121094L29.5463867,50.6328125V35.996582  c0-0.5522461-0.4477539-1-1-1h-4.7880859l11.1308594-10.8754883l-2.0224609,5.0776367  C32.7441406,29.5068359,32.7822266,29.8554688,32.9682617,30.1298828z M32,60  c-8.8012085,0-17.1068726-4.1620483-22.3866577-11.1752319l12.0981445-11.828186h5.8348999v17.6489258  c0,0.4589844,0.3125,0.859375,0.7583008,0.9702148c0.0805664,0.0200195,0.1616211,0.0297852,0.2416992,0.0297852  c0.0176392,0,0.0341797-0.0061035,0.0516968-0.007019c0.0372925-0.0018921,0.0723877-0.0087891,0.1088867-0.0148315  c0.0641479-0.0106201,0.1257935-0.026123,0.1863403-0.0487671c0.0354004-0.0132446,0.0691528-0.0267334,0.1028442-0.0438843  c0.060791-0.0308228,0.1160889-0.0691528,0.1696777-0.1119995c0.0253296-0.0202637,0.0519409-0.0369263,0.0753174-0.0597534  c0.0731201-0.0709839,0.1386719-0.1508179,0.1885376-0.2445068l13.3256836-25.0766602  c0.1650391-0.3100586,0.1552734-0.6835938-0.0258789-0.984375c-0.1806641-0.3007812-0.5058594-0.4848633-0.8569336-0.4848633  h-0.0004883h-6.6015625l3.1429443-7.8914185l10.9043579-10.6551514C55.8167725,15.1542969,60,23.0952148,60,32  C60,47.4394531,47.4394531,60,32,60z"/></svg>