<?xml version="1.0" ?><svg xmlns="http://www.w3.org/2000/svg" xmlns:xlink="http://www.w3.org/1999/xlink" version="1.1" id="Layer_1" viewBox="0 0 64 64" enable-background="new 0 0 64 64" xml:space="preserve"><path d="M29.3100586,29.9375c0,1.8671875,1.519043,3.3862305,3.3862305,3.3862305s3.3862305-1.519043,3.3862305-3.3862305  c0-1.8666992-1.519043-3.3857422-3.3862305-3.3857422S29.3100586,28.0708008,29.3100586,29.9375z M34.0825195,29.9375  c0,0.7641602-0.6220703,1.3862305-1.3862305,1.3862305s-1.3862305-0.6220703-1.3862305-1.3862305  s0.6220703-1.3857422,1.3862305-1.3857422S34.0825195,29.1733398,34.0825195,29.9375z"/><path d="M25.4306641,29.5766602C25.3339844,31.5185547,26,33.3803711,27.3051758,34.8198242  c1.3041992,1.4384766,3.0922852,2.2836914,5.0341797,2.3798828c0.1225586,0.0063477,0.2441406,0.0092773,0.3657227,0.0092773  c3.8447266,0,7.0649414-3.027832,7.2578125-6.9091797c0.0004883-0.0009766,0.0004883-0.0019531,0.0004883-0.0029297  c0.1879883-4.0039062-2.9116211-7.4223633-6.9091797-7.6206055C29.0541992,22.472168,25.6293945,25.5722656,25.4306641,29.5766602z   M37.965332,30.203125c-0.1455078,2.9008789-2.6123047,5.15625-5.5263672,4.9995117  c-1.409668-0.0703125-2.706543-0.6831055-3.6523438-1.7260742c-0.9458008-1.043457-1.4287109-2.3930664-1.3588867-3.8007812  c0.1401367-2.8139648,2.4741211-5.0087891,5.262207-5.0087891c0.0874023,0,0.1762695,0.0019531,0.2646484,0.0063477  C35.8540039,24.8173828,38.1020508,27.2978516,37.965332,30.203125z"/><path d="M16.3759766,46.8691406h10.6303711v3.0249023c0,0.5522461,0.4477539,1,1,1h2.9975586v1.9807129  c-1.5490723,0.4393921-2.6938477,1.8510132-2.6938477,3.5388184c0,0.0744629,0.0175781,0.144104,0.0219727,0.2175293  l-9.8867188,3.4240723c-0.5219727,0.1806641-0.7983398,0.75-0.6176758,1.2719727  c0.1430664,0.4135742,0.5302734,0.6733398,0.9448242,0.6733398c0.1083984,0,0.21875-0.0180664,0.3271484-0.0556641  l9.8799438-3.4217529c0.668457,0.9552002,1.7727661,1.5843506,3.024353,1.5843506  c2.0371094,0,3.6943359-1.6572266,3.6943359-3.6938477c0-1.6878662-1.1449585-3.0994873-2.6943359-3.5388794V50.894043h2.9975586  c0.5522461,0,1-0.4477539,1-1v-3.0249023h12.0053711c0.5522461,0,1-0.4477539,1-1V22.8520508v-7.2353516  c0-0.5522461-0.4477539-1-1-1h-11.59375v-1.2290039h3.7480469c0.5522461,0,1-0.4477539,1-1V3c0-0.5522461-0.4477539-1-1-1  H22.8466797c-0.5522461,0-1,0.4477539-1,1v9.3876953c0,0.5522461,0.4477539,1,1,1h3.7480469v1.2290039h-10.21875  c-0.5522461,0-1,0.4477539-1,1v7.2353516v23.0170898C15.3759766,46.4213867,15.8237305,46.8691406,16.3759766,46.8691406z   M33.6982422,56.4135742c0,0.934082-0.7602539,1.6938477-1.6943359,1.6938477s-1.6938477-0.7597656-1.6938477-1.6938477  s0.7597656-1.6938477,1.6938477-1.6938477S33.6982422,55.4794922,33.6982422,56.4135742z M35.0014648,48.894043h-5.9951172  v-2.0249023h5.9951172V48.894043z M48.0068359,44.8691406H36.0014648h-7.9951172H17.3759766V23.8520508h6.1733398  c-1.0888672,1.6328125-1.7270508,3.5415039-1.8325195,5.543457c-0.144043,2.9306641,0.8603516,5.7421875,2.8295898,7.9165039  s4.6679688,3.4516602,7.5981445,3.5961914c6.0415039,0.2890625,11.2133789-4.3798828,11.5214844-10.4282227  c0.1157227-2.3603516-0.5385742-4.684082-1.8310547-6.6279297h6.171875V44.8691406z M39.0228882,23.5620728  c1.8060913,1.7973022,2.7700806,4.2831421,2.6455688,6.8178101c-0.2519531,4.9467773-4.4726562,8.8017578-9.425293,8.5302734  c-2.3969727-0.1176758-4.6040039-1.1625977-6.2143555-2.940918s-2.4321289-4.0776367-2.3144531-6.472168  c0.1181641-2.2514648,1.0605469-4.3588867,2.652832-5.934082c0.0001221-0.0001221,0.0001221-0.0001831,0.0002441-0.0003052  c0.000061-0.000061,0.0001831-0.0001221,0.0002441-0.0001831c1.7915039-1.7749023,4.2592773-2.7138672,6.7719727-2.597168  C35.3520508,21.074707,37.4414062,21.9967041,39.0228882,23.5620728z M23.8466797,4h16.3144531v7.3876953h-3.7480469h-8.8183594  h-3.7480469V4z M28.5947266,13.3876953h6.8183594v1.2290039h-6.8183594V13.3876953z M17.3759766,16.6166992h10.21875h8.8183594  h11.59375v5.2353516h-7.8793945c-1.8925781-1.7368164-4.3227539-2.7573242-6.8886719-2.8837891  c-2.9272461-0.1503906-5.8144531,0.9018555-7.9746094,2.8837891h-7.8881836V16.6166992z"/><path d="M37.8110352,9.5209961V5.8671875c0-0.5522461-0.4477539-1-1-1h-9.6230469c-0.5522461,0-1,0.4477539-1,1v3.6538086  c0,0.5522461,0.4477539,1,1,1h9.6230469C37.3632812,10.5209961,37.8110352,10.0732422,37.8110352,9.5209961z M35.8110352,8.5209961  h-7.6230469V6.8671875h7.6230469V8.5209961z"/></svg>